/vscmnt/brussel_pixiu_data/_data_brussel/112/vsc11236/PredSimResults/SUBJ06opt3D/expIG/worker_07.mot
version=1
nRows=5
nColumns=50
inDegrees=yes
endheader
                time	         pelvis_tilt	         pelvis_list	     pelvis_rotation	           pelvis_tx	           pelvis_ty	           pelvis_tz	       hip_flexion_r	     hip_adduction_r	      hip_rotation_r	        knee_angle_r	       ankle_angle_r	         mtp_angle_r	       hip_flexion_l	     hip_adduction_l	      hip_rotation_l	        knee_angle_l	       ankle_angle_l	         mtp_angle_l	    lumbar_extension	      lumbar_bending	     lumbar_rotation	 ercspn_r/activation	 intobl_r/activation	 extobl_r/activation	    abd_r/activation	    add_r/activation	hamstrings_r/activation	bifemsh_r/activation	glut_max_r/activation	iliopsoas_r/activation	rect_fem_r/activation	  vasti_r/activation	gastroc_r/activation	 soleus_r/activation	tib_ant_r/activation	 ercspn_l/activation	 intobl_l/activation	 extobl_l/activation	    abd_l/activation	    add_l/activation	hamstrings_l/activation	bifemsh_l/activation	glut_max_l/activation	iliopsoas_l/activation	rect_fem_l/activation	  vasti_l/activation	gastroc_l/activation	 soleus_l/activation	tib_ant_l/activation	
          0.00000000	         -6.07511819	         -1.06620235	          5.53128917	          0.00000000	          0.92798026	         -0.01111146	         32.83375097	         -1.41747974	         -8.35618860	         -8.40078449	          0.52656256	          0.23022287	        -10.94046366	         -1.03659631	         -6.18199793	        -10.51006818	          8.47753982	         33.28530027	         -5.95477409	         -0.19181166	         -7.79207609	          0.18841891	          0.17531323	          0.00999999	          0.01004853	          0.29834732	          0.06445999	          0.12537901	          0.01384713	          0.12025196	          0.00999999	          0.00999999	          0.00999999	          0.00999999	          0.53144494	          0.13312906	          0.00999999	          0.00999999	          0.07375497	          0.00999999	          0.01008655	          0.23211718	          0.01536597	          0.54198099	          0.02059578	          0.00999999	          0.24727323	          0.37339774	          0.02444092	
          0.01187799	         -6.15249653	         -1.02181110	          5.56621792	          0.01704908	          0.92617151	         -0.01048610	         33.04718356	         -1.31797670	         -8.43814659	        -10.24596923	          0.24113439	          0.22946682	        -11.42393374	         -1.17045296	         -6.55369100	        -11.30992473	          7.39672723	         35.20937747	         -5.65692682	          0.14538361	         -8.26647517	          0.16897321	          0.14634235	          0.00999999	          0.00999999	          0.41655087	          0.06474577	          0.10465987	          0.10350511	          0.10038007	          0.00999999	          0.00999999	          0.01083454	          0.01719228	          0.53954825	          0.18825453	          0.00999999	          0.00999999	          0.06156681	          0.00999999	          0.01000000	          0.19375933	          0.01282693	          0.55412138	          0.01719228	          0.00999999	          0.20829823	          0.34809794	          0.02040201	
          0.02375598	         -6.20432358	         -1.02649860	          5.57996763	          0.03456874	          0.92457035	         -0.00981340	         33.02330794	         -1.25939559	         -8.31988306	        -12.04367450	          0.02792334	          0.19756569	        -11.78157291	         -1.38614149	         -6.92266575	        -12.41301674	          6.19942319	         37.15424758	         -5.32731622	          0.54367049	         -8.70202407	          0.15102947	          0.12215897	          0.00999999	          0.05215805	          0.34771496	          0.07062504	          0.08736460	          0.09705421	          0.08379206	          0.00999999	          0.00999999	          0.01197965	          0.01435122	          0.58456660	          0.16601293	          0.00999999	          0.00999999	          0.05139276	          0.00999999	          0.00999999	          0.20226458	          0.01070725	          0.57056220	          0.01435122	          0.00999999	          0.17387651	          0.31951235	          0.01703053	
          0.03563396	         -6.23406914	         -1.04828376	          5.55888776	          0.05231133	          0.92325674	         -0.00900376	         32.85710321	         -1.19401360	         -8.30709688	        -13.64415059	         -0.27330398	          0.18583384	        -11.91586584	         -1.66036256	         -7.30205840	        -13.96267840	          4.86592130	         39.11340761	         -4.99852893	          0.95596380	         -9.08437466	          0.16821892	          0.10197194	          0.00999999	          0.09557582	          0.33752591	          0.07063331	          0.07292742	          0.14061792	          0.06994524	          0.00999999	          0.03375131	          0.00999999	          0.01197965	          0.63397679	          0.18198526	          0.00999999	          0.00999999	          0.04290000	          0.00999999	          0.00999999	          0.19524916	          0.00999999	          0.50372548	          0.01197965	          0.00999999	          0.14514305	          0.27745365	          0.01421620	
          0.04751195	         -6.24282224	         -1.08466886	          5.50469773	          0.07008580	          0.92232979	         -0.00806910	         32.62249450	         -1.11550781	         -8.39940713	        -15.14957705	         -0.57744506	          0.15240964	        -11.76568857	         -1.99798298	         -7.69873554	        -16.03297302	          3.35899618	         41.03344204	         -4.68935301	          1.38041917	         -9.40691538	          0.16315460	          0.08512087	          0.00999999	          0.14136108	          0.31046530	          0.07118506	          0.06087601	          0.17229860	          0.05838665	          0.00999999	          0.09730536	          0.00999999	          0.00999999	          0.67814742	          0.21986867	          0.00999999	          0.00999999	          0.03581069	          0.00999999	          0.00999999	          0.16867164	          0.00999999	          0.42048379	          0.00999999	          0.00999999	          0.12115786	          0.23160385	          0.01186694	
